<?xml version="1.0" encoding="UTF-8"?> <svg xmlns="http://www.w3.org/2000/svg" width="398" height="127" viewBox="0 0 398 127" fill="none"><path d="M9.69873 96L53 21L96.3013 96H9.69873Z" fill="#FF4081" fill-opacity="0.3" stroke="#FF4081" stroke-width="3"></path><line x1="27" y1="65.5" x2="78" y2="65.5" stroke="#FF4081" stroke-width="3"></line><path d="M52.074 55.18C50.85 55.18 49.776 54.91 48.852 54.37C47.94 53.83 47.232 53.074 46.728 52.102C46.224 51.118 45.972 49.966 45.972 48.646C45.972 47.314 46.224 46.162 46.728 45.19C47.232 44.218 47.94 43.468 48.852 42.94C49.764 42.4 50.838 42.13 52.074 42.13C53.31 42.13 54.384 42.4 55.296 42.94C56.208 43.468 56.916 44.218 57.42 45.19C57.924 46.162 58.176 47.308 58.176 48.628C58.176 49.96 57.924 51.118 57.42 52.102C56.916 53.074 56.208 53.83 55.296 54.37C54.384 54.91 53.31 55.18 52.074 55.18ZM52.074 53.2C53.238 53.2 54.144 52.798 54.792 51.994C55.44 51.19 55.764 50.074 55.764 48.646C55.764 47.206 55.44 46.09 54.792 45.298C54.156 44.506 53.25 44.11 52.074 44.11C50.91 44.11 50.004 44.506 49.356 45.298C48.708 46.09 48.384 47.206 48.384 48.646C48.384 50.074 48.708 51.19 49.356 51.994C50.004 52.798 50.91 53.2 52.074 53.2Z" fill="black"></path><path d="M65.386 88V75.31H67.69V80.602H74.224V75.31H76.528V88H74.224V82.528H67.69V88H65.386Z" fill="black"></path><path d="M47.964 86L50.424 82.964L48.12 80.132H49.872L51.288 81.944L52.704 80.132H54.456L52.14 82.976L54.612 86H52.848L51.276 84.02L49.716 86H47.964Z" fill="black"></path><path d="M32.76 87.18C31.764 87.18 30.84 87.054 29.988 86.802C29.136 86.538 28.416 86.184 27.828 85.74L28.53 83.922C29.118 84.342 29.76 84.666 30.456 84.894C31.164 85.122 31.932 85.236 32.76 85.236C33.708 85.236 34.398 85.08 34.83 84.768C35.262 84.444 35.478 84.03 35.478 83.526C35.478 83.106 35.322 82.776 35.01 82.536C34.71 82.296 34.188 82.098 33.444 81.942L31.464 81.528C29.208 81.048 28.08 79.89 28.08 78.054C28.08 77.262 28.29 76.572 28.71 75.984C29.13 75.396 29.712 74.94 30.456 74.616C31.2 74.292 32.058 74.13 33.03 74.13C33.894 74.13 34.704 74.262 35.46 74.526C36.216 74.778 36.846 75.138 37.35 75.606L36.648 77.334C35.652 76.494 34.44 76.074 33.012 76.074C32.184 76.074 31.536 76.248 31.068 76.596C30.6 76.944 30.366 77.4 30.366 77.964C30.366 78.396 30.51 78.744 30.798 79.008C31.086 79.26 31.578 79.458 32.274 79.602L34.236 80.016C35.424 80.268 36.306 80.664 36.882 81.204C37.47 81.744 37.764 82.464 37.764 83.364C37.764 84.12 37.56 84.786 37.152 85.362C36.744 85.938 36.162 86.388 35.406 86.712C34.662 87.024 33.78 87.18 32.76 87.18Z" fill="black"></path><path d="M155.699 96L199 21L242.301 96H155.699Z" fill="#FF4081" fill-opacity="0.3" stroke="#FF4081" stroke-width="3"></path><line x1="173" y1="65.5" x2="224" y2="65.5" stroke="#FF4081" stroke-width="3"></line><path d="M192.018 55L197.76 42.31H199.65L205.392 55H203.052L201.792 52.066H195.6L194.358 55H192.018ZM198.678 44.812L196.392 50.23H201L198.714 44.812H198.678Z" fill="black"></path><path d="M212.386 87V74.31H214.69V79.602H221.224V74.31H223.528V87H221.224V81.528H214.69V87H212.386Z" fill="black"></path><path d="M194.964 85L197.424 81.964L195.12 79.132H196.872L198.288 80.944L199.704 79.132H201.456L199.14 81.976L201.612 85H199.848L198.276 83.02L196.716 85H194.964Z" fill="black"></path><path d="M180.29 87.18C178.97 87.18 177.836 86.916 176.888 86.388C175.952 85.848 175.232 85.092 174.728 84.12C174.224 83.136 173.972 81.978 173.972 80.646C173.972 79.314 174.224 78.162 174.728 77.19C175.232 76.218 175.952 75.468 176.888 74.94C177.836 74.4 178.97 74.13 180.29 74.13C181.142 74.13 181.946 74.262 182.702 74.526C183.47 74.79 184.1 75.168 184.592 75.66L183.836 77.496C183.296 77.04 182.744 76.71 182.18 76.506C181.616 76.29 181.01 76.182 180.362 76.182C179.078 76.182 178.1 76.572 177.428 77.352C176.756 78.12 176.42 79.218 176.42 80.646C176.42 82.074 176.756 83.178 177.428 83.958C178.1 84.738 179.078 85.128 180.362 85.128C181.01 85.128 181.616 85.026 182.18 84.822C182.744 84.606 183.296 84.27 183.836 83.814L184.592 85.65C184.1 86.13 183.47 86.508 182.702 86.784C181.946 87.048 181.142 87.18 180.29 87.18Z" fill="black"></path><path d="M301.699 96L345 21L388.301 96H301.699Z" fill="#FF4081" fill-opacity="0.3" stroke="#FF4081" stroke-width="3"></path><line x1="320" y1="65.5" x2="371" y2="65.5" stroke="#FF4081" stroke-width="3"></line><path d="M344.074 55.18C342.85 55.18 341.776 54.91 340.852 54.37C339.94 53.83 339.232 53.074 338.728 52.102C338.224 51.118 337.972 49.966 337.972 48.646C337.972 47.314 338.224 46.162 338.728 45.19C339.232 44.218 339.94 43.468 340.852 42.94C341.764 42.4 342.838 42.13 344.074 42.13C345.31 42.13 346.384 42.4 347.296 42.94C348.208 43.468 348.916 44.218 349.42 45.19C349.924 46.162 350.176 47.308 350.176 48.628C350.176 49.96 349.924 51.118 349.42 52.102C348.916 53.074 348.208 53.83 347.296 54.37C346.384 54.91 345.31 55.18 344.074 55.18ZM344.074 53.2C345.238 53.2 346.144 52.798 346.792 51.994C347.44 51.19 347.764 50.074 347.764 48.646C347.764 47.206 347.44 46.09 346.792 45.298C346.156 44.506 345.25 44.11 344.074 44.11C342.91 44.11 342.004 44.506 341.356 45.298C340.708 46.09 340.384 47.206 340.384 48.646C340.384 50.074 340.708 51.19 341.356 51.994C342.004 52.798 342.91 53.2 344.074 53.2Z" fill="black"></path><path d="M357.018 87L362.76 74.31H364.65L370.392 87H368.052L366.792 84.066H360.6L359.358 87H357.018ZM363.678 76.812L361.392 82.23H366L363.714 76.812H363.678Z" fill="black"></path><path d="M340.964 85L343.424 81.964L341.12 79.132H342.872L344.288 80.944L345.704 79.132H347.456L345.14 81.976L347.612 85H345.848L344.276 83.02L342.716 85H340.964Z" fill="black"></path><path d="M324.446 87V76.236H320.09V74.31H331.106V76.236H326.75V87H324.446Z" fill="black"></path><path d="M41.48 14.14C40.7053 14.14 39.9867 14.042 39.324 13.846C38.6613 13.6407 38.1013 13.3653 37.644 13.02L38.19 11.606C38.6473 11.9327 39.1467 12.1847 39.688 12.362C40.2387 12.5393 40.836 12.628 41.48 12.628C42.2173 12.628 42.754 12.5067 43.09 12.264C43.426 12.012 43.594 11.69 43.594 11.298C43.594 10.9713 43.4727 10.7147 43.23 10.528C42.9967 10.3413 42.5907 10.1873 42.012 10.066L40.472 9.744C38.7173 9.37067 37.84 8.47 37.84 7.042C37.84 6.426 38.0033 5.88933 38.33 5.432C38.6567 4.97467 39.1093 4.62 39.688 4.368C40.2667 4.116 40.934 3.99 41.69 3.99C42.362 3.99 42.992 4.09267 43.58 4.298C44.168 4.494 44.658 4.774 45.05 5.138L44.504 6.482C43.7293 5.82867 42.7867 5.502 41.676 5.502C41.032 5.502 40.528 5.63733 40.164 5.908C39.8 6.17867 39.618 6.53333 39.618 6.972C39.618 7.308 39.73 7.57867 39.954 7.784C40.178 7.98 40.5607 8.134 41.102 8.246L42.628 8.568C43.552 8.764 44.238 9.072 44.686 9.492C45.1433 9.912 45.372 10.472 45.372 11.172C45.372 11.76 45.2133 12.278 44.896 12.726C44.5787 13.174 44.126 13.524 43.538 13.776C42.9593 14.0187 42.2733 14.14 41.48 14.14ZM51.484 14.14C50.532 14.14 49.6967 13.93 48.978 13.51C48.2687 13.09 47.718 12.502 47.326 11.746C46.934 10.9807 46.738 10.0847 46.738 9.058C46.738 8.022 46.934 7.126 47.326 6.37C47.718 5.614 48.2687 5.03067 48.978 4.62C49.6874 4.2 50.5227 3.99 51.484 3.99C52.4454 3.99 53.2807 4.2 53.99 4.62C54.6994 5.03067 55.25 5.614 55.642 6.37C56.034 7.126 56.23 8.01733 56.23 9.044C56.23 10.08 56.034 10.9807 55.642 11.746C55.25 12.502 54.6994 13.09 53.99 13.51C53.2807 13.93 52.4454 14.14 51.484 14.14ZM51.484 12.6C52.3894 12.6 53.094 12.2873 53.598 11.662C54.102 11.0367 54.354 10.1687 54.354 9.058C54.354 7.938 54.102 7.07 53.598 6.454C53.1034 5.838 52.3987 5.53 51.484 5.53C50.5787 5.53 49.874 5.838 49.37 6.454C48.866 7.07 48.614 7.938 48.614 9.058C48.614 10.1687 48.866 11.0367 49.37 11.662C49.874 12.2873 50.5787 12.6 51.484 12.6ZM58.2022 14V4.13H59.9942V8.246H65.0762V4.13H66.8682V14H65.0762V9.744H59.9942V14H58.2022Z" fill="black"></path><path d="M188.67 14.14C187.643 14.14 186.761 13.9347 186.024 13.524C185.296 13.104 184.736 12.516 184.344 11.76C183.952 10.9947 183.756 10.094 183.756 9.058C183.756 8.022 183.952 7.126 184.344 6.37C184.736 5.614 185.296 5.03067 186.024 4.62C186.761 4.2 187.643 3.99 188.67 3.99C189.333 3.99 189.958 4.09267 190.546 4.298C191.143 4.50333 191.633 4.79733 192.016 5.18L191.428 6.608C191.008 6.25333 190.579 5.99667 190.14 5.838C189.701 5.67 189.23 5.586 188.726 5.586C187.727 5.586 186.967 5.88933 186.444 6.496C185.921 7.09333 185.66 7.94733 185.66 9.058C185.66 10.1687 185.921 11.0273 186.444 11.634C186.967 12.2407 187.727 12.544 188.726 12.544C189.23 12.544 189.701 12.4647 190.14 12.306C190.579 12.138 191.008 11.8767 191.428 11.522L192.016 12.95C191.633 13.3233 191.143 13.6173 190.546 13.832C189.958 14.0373 189.333 14.14 188.67 14.14ZM192.461 14L196.927 4.13H198.397L202.863 14H201.043L200.063 11.718H195.247L194.281 14H192.461ZM197.641 6.076L195.863 10.29H199.447L197.669 6.076H197.641ZM204.093 14V4.13H205.885V8.246H210.967V4.13H212.759V14H210.967V9.744H205.885V14H204.093Z" fill="black"></path><path d="M332.458 14V5.628H329.07V4.13H337.638V5.628H334.25V14H332.458ZM342.746 14.14C341.794 14.14 340.958 13.93 340.24 13.51C339.53 13.09 338.98 12.502 338.588 11.746C338.196 10.9807 338 10.0847 338 9.058C338 8.022 338.196 7.126 338.588 6.37C338.98 5.614 339.53 5.03067 340.24 4.62C340.949 4.2 341.784 3.99 342.746 3.99C343.707 3.99 344.542 4.2 345.252 4.62C345.961 5.03067 346.512 5.614 346.904 6.37C347.296 7.126 347.492 8.01733 347.492 9.044C347.492 10.08 347.296 10.9807 346.904 11.746C346.512 12.502 345.961 13.09 345.252 13.51C344.542 13.93 343.707 14.14 342.746 14.14ZM342.746 12.6C343.651 12.6 344.356 12.2873 344.86 11.662C345.364 11.0367 345.616 10.1687 345.616 9.058C345.616 7.938 345.364 7.07 344.86 6.454C344.365 5.838 343.66 5.53 342.746 5.53C341.84 5.53 341.136 5.838 340.632 6.454C340.128 7.07 339.876 7.938 339.876 9.058C339.876 10.1687 340.128 11.0367 340.632 11.662C341.136 12.2873 341.84 12.6 342.746 12.6ZM348.195 14L352.661 4.13H354.131L358.597 14H356.777L355.797 11.718H350.981L350.015 14H348.195ZM353.375 6.076L351.597 10.29H355.181L353.403 6.076H353.375Z" fill="black"></path><g clip-path="url(#clip0)"><path d="M23.7909 113.906C23.7909 113.558 23.6753 113.257 23.444 113.004C23.2127 112.752 22.8787 112.625 22.4418 112.625C22.1334 112.625 21.8679 112.682 21.6452 112.795C21.3882 112.961 21.2597 113.187 21.2597 113.475C21.2512 113.519 21.2512 113.575 21.2597 113.645C21.2683 113.715 21.3368 113.819 21.4653 113.958C21.5938 114.098 21.778 114.207 22.0178 114.285C22.172 114.329 22.3604 114.368 22.5831 114.403C22.8059 114.438 22.9943 114.477 23.1485 114.52C23.3027 114.564 23.4397 114.621 23.5596 114.69C23.7053 114.76 23.8466 114.847 23.9836 114.952C24.1207 115.056 24.2578 115.235 24.3948 115.488C24.5319 115.74 24.6047 116.01 24.6132 116.298C24.6132 116.838 24.4505 117.282 24.125 117.631C23.7995 117.979 23.2727 118.158 22.5446 118.167H22.4418C21.9964 118.167 21.5852 118.01 21.2083 117.696L21.1055 117.788L20.9899 117.905C20.9385 117.958 20.8871 118.005 20.8357 118.049L20.6944 118.18H20.5916H20.5402C20.5145 118.18 20.476 118.154 20.4246 118.101V117.069V116.311C20.4246 116.128 20.4331 116.019 20.4503 115.984C20.4674 115.949 20.5102 115.928 20.5787 115.919H20.6944C20.7972 115.919 20.8657 115.936 20.9 115.971C20.9342 116.006 20.9556 116.058 20.9642 116.128C20.9728 116.198 21.0028 116.315 21.0541 116.481C21.1055 116.646 21.1869 116.829 21.2983 117.03C21.5981 117.474 22.0135 117.696 22.5446 117.696C23.3755 117.696 23.7909 117.356 23.7909 116.677C23.7909 116.424 23.7138 116.219 23.5596 116.063C23.3883 115.853 23.0328 115.697 22.4932 115.592C21.9536 115.488 21.5981 115.387 21.4268 115.291C21.1184 115.143 20.8743 114.943 20.6944 114.69C20.5145 114.438 20.4246 114.168 20.4246 113.88C20.4246 113.54 20.4974 113.253 20.643 113.018C20.7886 112.782 20.9728 112.608 21.1955 112.495C21.4182 112.382 21.6323 112.303 21.8379 112.26C22.0435 112.216 22.2319 112.194 22.4033 112.194H22.5446C22.8872 112.194 23.187 112.26 23.444 112.39L23.6367 112.495L23.7524 112.403C23.838 112.325 23.9323 112.251 24.035 112.181H24.1378H24.1892C24.2149 112.181 24.2535 112.207 24.3049 112.26V113.985L24.2278 114.063H23.868C23.8166 114.011 23.7909 113.958 23.7909 113.906Z" fill="black"></path><path d="M25.9495 110.076C25.9495 109.832 26.0266 109.641 26.1807 109.501C26.3349 109.362 26.5234 109.292 26.7461 109.292C26.9431 109.31 27.1144 109.384 27.26 109.514C27.4056 109.645 27.4785 109.832 27.4785 110.076C27.4785 110.338 27.4056 110.534 27.26 110.664C27.1144 110.795 26.9345 110.86 26.7204 110.86C26.5062 110.86 26.3264 110.795 26.1807 110.664C26.0351 110.534 25.958 110.338 25.9495 110.076ZM28.2365 118.035C28.108 118.009 27.6626 117.996 26.9003 117.996C26.806 117.996 26.6476 117.996 26.4249 117.996C26.2022 117.996 25.988 118.005 25.7824 118.022L25.4998 118.035H25.397V117.434H25.6026C25.8424 117.434 26.0523 117.421 26.2321 117.395C26.3092 117.36 26.3563 117.312 26.3735 117.251C26.3906 117.19 26.3992 117.007 26.3992 116.702V115.356V114.206C26.3992 113.753 26.3906 113.465 26.3735 113.343C26.3563 113.222 26.2964 113.139 26.1936 113.095C26.0737 113.034 25.8724 113.004 25.5897 113.004H25.4484V112.703C25.4484 112.503 25.4569 112.403 25.4741 112.403L25.6026 112.389C25.6882 112.381 25.8081 112.372 25.9623 112.363C26.1165 112.355 26.2707 112.346 26.4249 112.337C26.5705 112.328 26.7247 112.32 26.8874 112.311C27.0502 112.302 27.1744 112.289 27.26 112.272C27.3457 112.254 27.3928 112.25 27.4014 112.259H27.4399V117.225C27.4827 117.312 27.5341 117.364 27.5941 117.382C27.6541 117.399 27.804 117.417 28.0438 117.434H28.3393V118.035H28.2365Z" fill="black"></path><path d="M29.1616 117.434H29.3415C29.6756 117.434 29.8769 117.373 29.9454 117.251V117.146C29.9454 117.068 29.9454 116.968 29.9454 116.846C29.9454 116.724 29.9454 116.589 29.9454 116.441C29.9454 116.293 29.9497 116.123 29.9583 115.931C29.9668 115.739 29.9668 115.556 29.9583 115.382C29.9583 115.112 29.9583 114.825 29.9583 114.52C29.9583 114.215 29.954 113.958 29.9454 113.749V113.448C29.9197 113.282 29.8597 113.174 29.7655 113.121C29.6713 113.069 29.4786 113.03 29.1873 113.004H28.9561V112.703C28.9561 112.503 28.9646 112.403 28.9818 112.403L29.1102 112.389C29.1959 112.381 29.3158 112.372 29.47 112.363C29.6242 112.355 29.7827 112.346 29.9454 112.337C30.091 112.328 30.2452 112.32 30.408 112.311C30.5707 112.302 30.6949 112.289 30.7806 112.272C30.8662 112.254 30.9133 112.25 30.9219 112.259H30.9605V112.782C30.9605 113.113 30.9647 113.278 30.9733 113.278C30.9819 113.278 31.0033 113.256 31.0375 113.213C31.0718 113.169 31.1232 113.104 31.1917 113.017C31.2603 112.93 31.3416 112.851 31.4359 112.782C31.5301 112.712 31.6543 112.629 31.8085 112.533C31.9626 112.437 32.1254 112.368 32.2967 112.324C32.468 112.281 32.6865 112.259 32.952 112.259C33.9285 112.294 34.4724 112.786 34.5838 113.736C34.5923 113.797 34.5966 114.402 34.5966 115.552V116.676C34.5966 117.007 34.6052 117.203 34.6223 117.264C34.6395 117.325 34.6866 117.369 34.7637 117.395C34.9435 117.421 35.1534 117.434 35.3932 117.434H35.5988V118.035H35.496L35.1877 118.022C34.9907 118.013 34.7765 118.009 34.5452 118.009C34.314 118.009 34.1512 118.005 34.057 117.996C33.1747 117.996 32.695 118.009 32.6179 118.035H32.5151V117.434H32.7207C33.2432 117.434 33.5045 117.364 33.5045 117.225C33.5131 117.207 33.5173 116.606 33.5173 115.421C33.5088 114.245 33.5002 113.622 33.4916 113.553C33.4402 113.309 33.3546 113.126 33.2347 113.004C33.1147 112.882 33.012 112.808 32.9263 112.782C32.8406 112.755 32.7293 112.747 32.5922 112.755C32.2068 112.755 31.8684 112.904 31.5772 113.2C31.3459 113.435 31.2003 113.675 31.1403 113.919C31.0804 114.162 31.0461 114.524 31.0375 115.003V115.84V116.624C31.0375 116.885 31.0418 117.059 31.0504 117.146C31.059 117.234 31.0718 117.29 31.0889 117.316C31.1061 117.343 31.1446 117.369 31.2046 117.395C31.3845 117.421 31.5943 117.434 31.8342 117.434H32.0397V118.035H31.937L31.6414 118.022C31.4359 118.013 31.2174 118.009 30.9861 118.009C30.7549 118.009 30.5921 118.005 30.4979 117.996C29.6156 117.996 29.1359 118.009 29.0588 118.035H28.9561V117.434H29.1616Z" fill="black"></path><path d="M36.9863 114.766C36.9863 114.165 37.0292 113.595 37.1148 113.054C37.2005 112.514 37.299 112.048 37.4103 111.656C37.5217 111.264 37.6802 110.881 37.8857 110.506C38.0913 110.131 38.2541 109.84 38.374 109.63C38.4939 109.421 38.6738 109.195 38.9136 108.951C39.1535 108.707 39.2948 108.559 39.3376 108.506C39.3805 108.454 39.4875 108.363 39.6588 108.232H39.8259H39.8773C39.9972 108.232 40.0572 108.271 40.0572 108.35C40.0572 108.376 39.9843 108.467 39.8387 108.624C39.6931 108.781 39.5175 109.012 39.3119 109.317C39.1064 109.622 38.8965 109.996 38.6823 110.441C38.4682 110.885 38.2883 111.486 38.1427 112.244C37.9971 113.002 37.9243 113.843 37.9243 114.766C37.9243 115.69 37.9971 116.526 38.1427 117.276C38.2883 118.025 38.4639 118.63 38.6695 119.092C38.8751 119.554 39.0849 119.929 39.2991 120.216C39.5132 120.504 39.6931 120.734 39.8387 120.909C39.9843 121.083 40.0572 121.174 40.0572 121.183C40.0572 121.262 39.9929 121.301 39.8644 121.301H39.8259H39.6588L39.2991 120.987C38.4939 120.247 37.9071 119.323 37.5388 118.217C37.1705 117.11 36.9863 115.96 36.9863 114.766Z" fill="black"></path><path d="M41.2268 115.422C41.2268 114.533 41.3938 113.596 41.7279 112.612C42.062 111.627 42.516 110.778 43.0899 110.063C43.6638 109.349 44.2591 108.939 44.8758 108.835C44.8844 108.835 44.9187 108.835 44.9786 108.835C45.0386 108.835 45.09 108.831 45.1328 108.822C45.5954 108.857 45.9551 109.07 46.2121 109.462C46.5462 109.985 46.7132 110.686 46.7132 111.566C46.7132 112.568 46.5205 113.588 46.135 114.624C45.7495 115.661 45.257 116.511 44.6574 117.173C44.0578 117.835 43.4839 118.166 42.9357 118.166H42.8457C42.5374 118.166 42.2718 118.079 42.0491 117.905C41.8264 117.73 41.6594 117.5 41.548 117.212C41.4367 116.924 41.3553 116.633 41.3039 116.336C41.2525 116.04 41.2268 115.735 41.2268 115.422ZM45.6981 110.638C45.6981 109.75 45.4712 109.305 45.0172 109.305C44.7088 109.305 44.409 109.501 44.1178 109.894C43.8265 110.286 43.5867 110.73 43.3982 111.227C43.2098 111.723 43.0642 112.159 42.9614 112.533C42.8586 112.908 42.8029 113.126 42.7943 113.187C43.2141 113.196 43.6295 113.2 44.0407 113.2L45.287 113.187C45.2956 113.178 45.3298 113.034 45.3898 112.756C45.4497 112.477 45.5183 112.128 45.5954 111.71C45.6725 111.292 45.7067 110.935 45.6981 110.638ZM42.229 116.31C42.229 117.234 42.456 117.696 42.91 117.696C43.0385 117.696 43.1755 117.652 43.3211 117.565C43.4668 117.478 43.6424 117.312 43.8479 117.068C44.0535 116.824 44.2591 116.445 44.4647 115.931C44.6703 115.417 44.8758 114.781 45.0814 114.023L45.1457 113.801H42.6402C42.6402 113.827 42.6016 113.993 42.5245 114.298C42.4474 114.603 42.3789 114.942 42.3189 115.317C42.259 115.692 42.229 116.023 42.229 116.31Z" fill="black"></path><path d="M47.5738 108.245L47.6252 108.232C47.668 108.232 47.7108 108.232 47.7536 108.232H47.9078L48.2676 108.546C49.0728 109.286 49.6595 110.21 50.0279 111.316C50.3962 112.423 50.5804 113.573 50.5804 114.766C50.5804 115.359 50.5375 115.93 50.4519 116.478C50.3662 117.027 50.2677 117.493 50.1564 117.877C50.045 118.26 49.8865 118.643 49.681 119.027C49.4754 119.41 49.3126 119.702 49.1927 119.902C49.0728 120.103 48.8972 120.325 48.6659 120.569C48.4346 120.813 48.2976 120.957 48.2547 121C48.2119 121.044 48.1134 121.127 47.9592 121.249C47.9335 121.275 47.9164 121.292 47.9078 121.301H47.7536C47.6851 121.301 47.638 121.301 47.6123 121.301C47.5866 121.301 47.5652 121.288 47.5481 121.262C47.5309 121.235 47.5181 121.196 47.5095 121.144C47.5181 121.135 47.5652 121.079 47.6509 120.974C48.9786 119.571 49.6424 117.502 49.6424 114.766C49.6424 112.031 48.9786 109.961 47.6509 108.559C47.5652 108.454 47.5181 108.398 47.5095 108.389C47.5095 108.319 47.5309 108.271 47.5738 108.245Z" fill="black"></path><path d="M56.0896 113.5C56.0896 113.387 56.1496 113.3 56.2695 113.239H64.4541C64.5826 113.308 64.6468 113.396 64.6468 113.5C64.6468 113.596 64.5869 113.679 64.4669 113.748L60.3811 113.762H56.2952C56.1581 113.718 56.0896 113.631 56.0896 113.5ZM56.0896 116.036C56.0896 115.905 56.1581 115.818 56.2952 115.774H64.4669C64.5869 115.861 64.6468 115.948 64.6468 116.036C64.6468 116.149 64.5826 116.236 64.4541 116.297H56.2695C56.1496 116.236 56.0896 116.149 56.0896 116.036Z" fill="black"></path><path d="M82.0736 103.516C82.0736 104.518 81.7995 105.485 81.2513 106.417C80.7031 107.349 79.9964 108.094 79.1313 108.652C78.2661 109.209 77.3795 109.488 76.4716 109.488C75.6407 109.488 74.9297 109.24 74.3387 108.743C73.7477 108.247 73.375 107.524 73.2209 106.574C73.2123 106.504 73.208 106.317 73.208 106.012C73.208 105.123 73.4136 104.278 73.8247 103.477C74.2359 102.675 74.7884 101.965 75.4822 101.346C76.5444 100.449 77.6108 100 78.6815 100C79.007 100 79.2126 100.005 79.2983 100.013C80.1292 100.135 80.7973 100.51 81.3027 101.137C81.8081 101.765 82.065 102.557 82.0736 103.516ZM80.7502 102.98C80.7502 102.205 80.5532 101.599 80.1591 101.163C79.7651 100.728 79.2726 100.51 78.6815 100.51C77.9963 100.51 77.3367 100.771 76.7029 101.294C76.0176 101.843 75.4951 102.614 75.1353 103.607C74.7755 104.601 74.5914 105.524 74.5828 106.378C74.5828 107.162 74.767 107.785 75.1353 108.247C75.5036 108.709 75.9919 108.944 76.6001 108.952C77.371 108.952 78.1034 108.608 78.7972 107.92C79.491 107.232 80.0178 106.295 80.3776 105.11C80.626 104.283 80.7502 103.572 80.7502 102.98Z" fill="black"></path><path d="M74.6923 118.675C74.4011 118.675 74.2469 118.658 74.2298 118.623C74.2212 118.606 74.2169 118.571 74.2169 118.518C74.2169 118.309 74.264 118.166 74.3583 118.087C74.3754 118.078 74.4482 118.074 74.5767 118.074C74.9279 118.091 75.5104 118.1 76.3241 118.1C76.6153 118.1 76.8852 118.1 77.1336 118.1C77.382 118.1 77.5747 118.096 77.7118 118.087C77.8488 118.078 77.9345 118.078 77.9687 118.087C78.1058 118.087 78.1743 118.131 78.1743 118.218C78.1743 118.235 78.1658 118.296 78.1486 118.401C78.1058 118.549 78.063 118.636 78.0201 118.662H77.9944C77.9773 118.662 77.9559 118.662 77.9302 118.662C77.9045 118.662 77.8745 118.662 77.8403 118.662C77.806 118.662 77.7674 118.667 77.7246 118.675C77.6818 118.684 77.6432 118.684 77.609 118.675C77.2749 118.684 77.0608 118.697 76.9665 118.714C76.8723 118.732 76.7952 118.78 76.7353 118.858C76.7096 118.893 76.5725 119.429 76.3241 120.466C76.2641 120.692 76.1999 120.945 76.1314 121.224C76.0629 121.502 76.0115 121.707 75.9772 121.838L75.9258 122.034C75.9258 122.051 76.5468 122.06 77.7889 122.06H79.6519L79.6648 122.021C79.6648 121.995 79.7975 121.459 80.0631 120.413C80.3029 119.411 80.4228 118.876 80.4228 118.806C80.4228 118.736 80.1787 118.693 79.6905 118.675C79.4935 118.675 79.365 118.667 79.305 118.649C79.245 118.632 79.2151 118.592 79.2151 118.531C79.2151 118.514 79.2236 118.462 79.2408 118.375C79.275 118.227 79.3007 118.144 79.3179 118.126C79.335 118.109 79.4035 118.096 79.5234 118.087C79.5663 118.087 79.7461 118.091 80.0631 118.1C80.38 118.109 80.7826 118.113 81.2709 118.113C81.8019 118.113 82.2088 118.109 82.4915 118.1C82.7741 118.091 82.9283 118.087 82.954 118.087C83.0996 118.087 83.1725 118.131 83.1725 118.218C83.1725 118.453 83.1211 118.601 83.0183 118.662H82.9926C82.9754 118.662 82.954 118.662 82.9283 118.662C82.9026 118.662 82.8727 118.662 82.8384 118.662C82.8041 118.662 82.7656 118.667 82.7228 118.675C82.6799 118.684 82.6414 118.684 82.6071 118.675C82.2731 118.684 82.0589 118.697 81.9647 118.714C81.8705 118.732 81.7934 118.78 81.7334 118.858C81.7077 118.902 81.3993 120.135 80.8083 122.557C80.2173 124.979 79.9175 126.207 79.9089 126.242C79.9089 126.303 79.926 126.333 79.9603 126.333C80.0288 126.36 80.2601 126.381 80.6541 126.399H81.0524C81.1038 126.469 81.1295 126.508 81.1295 126.516C81.1295 126.525 81.1167 126.604 81.091 126.752C81.0567 126.865 81.0139 126.948 80.9625 127H80.7698C80.4528 126.983 79.8789 126.974 79.048 126.974C78.7568 126.974 78.487 126.974 78.2386 126.974C77.9902 126.974 77.7931 126.974 77.6475 126.974C77.5019 126.974 77.412 126.978 77.3777 126.987C77.2321 126.987 77.1593 126.948 77.1593 126.869C77.1593 126.826 77.1721 126.765 77.1978 126.686C77.2406 126.521 77.2835 126.429 77.3263 126.412C77.3606 126.403 77.4248 126.399 77.519 126.399H77.5961C77.8274 126.399 78.0844 126.386 78.367 126.36C78.4184 126.351 78.4527 126.347 78.4698 126.347C78.487 126.347 78.5127 126.325 78.5469 126.281C78.5812 126.238 78.6069 126.198 78.624 126.164C78.6412 126.129 78.6669 126.05 78.7011 125.928C78.7354 125.806 78.7654 125.684 78.7911 125.562C78.8168 125.44 78.8639 125.253 78.9324 125C78.9924 124.757 79.0395 124.561 79.0737 124.412C79.3564 123.262 79.4977 122.683 79.4977 122.674C79.4977 122.666 78.8767 122.661 77.6347 122.661H75.7716L75.3476 124.425C75.0564 125.593 74.9108 126.198 74.9108 126.242C74.9108 126.303 74.945 126.342 75.0135 126.36C75.0821 126.377 75.2962 126.39 75.656 126.399H76.0543C76.1057 126.469 76.1314 126.508 76.1314 126.516C76.1314 126.525 76.1185 126.604 76.0928 126.752C76.0586 126.865 76.0157 126.948 75.9643 127H75.7716C75.4547 126.983 74.8808 126.974 74.0499 126.974C73.7587 126.974 73.4888 126.974 73.2404 126.974C72.992 126.974 72.795 126.974 72.6494 126.974C72.5038 126.974 72.4138 126.978 72.3796 126.987C72.2339 126.987 72.1611 126.948 72.1611 126.869C72.1611 126.852 72.174 126.791 72.1997 126.686C72.2425 126.521 72.2853 126.429 72.3282 126.412C72.3624 126.403 72.4267 126.399 72.5209 126.399H72.598C72.8293 126.399 73.0862 126.386 73.3689 126.36C73.4888 126.333 73.5702 126.281 73.613 126.203C73.6387 126.168 73.9471 124.957 74.5381 122.57C75.1292 120.182 75.4247 118.924 75.4247 118.793C75.4247 118.732 75.1806 118.693 74.6923 118.675Z" fill="black"></path><path d="M84.4572 115.16H70.4778V114.376H84.4572V115.16Z" fill="black"></path></g><g clip-path="url(#clip1)"><path d="M169.797 114.124C169.797 114.124 169.706 114.124 169.525 114.124C169.344 114.124 169.188 114.059 169.058 113.929C168.929 113.799 168.86 113.634 168.851 113.435C168.851 113.236 168.916 113.071 169.045 112.941C169.089 112.898 169.11 112.872 169.11 112.863C169.11 112.855 169.067 112.846 168.981 112.837C168.756 112.803 168.544 112.785 168.346 112.785C167.922 112.785 167.577 112.924 167.309 113.201C166.903 113.608 166.7 114.288 166.7 115.241C166.7 115.951 166.834 116.51 167.101 116.917C167.456 117.446 167.931 117.71 168.527 117.71C168.881 117.71 169.166 117.597 169.382 117.372C169.598 117.147 169.754 116.878 169.849 116.566C169.866 116.497 169.888 116.454 169.914 116.437C169.94 116.419 170.009 116.411 170.121 116.411H170.303C170.354 116.463 170.38 116.501 170.38 116.527C170.38 116.562 170.363 116.631 170.329 116.735C170.294 116.839 170.225 116.982 170.121 117.164C170.017 117.346 169.892 117.511 169.745 117.658C169.598 117.805 169.391 117.939 169.123 118.061C168.855 118.182 168.557 118.238 168.229 118.23C167.486 118.23 166.838 117.952 166.285 117.398C165.732 116.844 165.451 116.146 165.443 115.306C165.443 114.405 165.723 113.673 166.285 113.11C166.847 112.547 167.499 112.266 168.242 112.266C168.985 112.266 169.503 112.383 169.797 112.617C170.091 112.85 170.238 113.128 170.238 113.448C170.238 113.647 170.164 113.808 170.017 113.929L169.797 114.124Z" fill="black"></path><path d="M171.119 115.306C171.119 114.483 171.4 113.773 171.961 113.175C172.523 112.578 173.201 112.275 173.996 112.266C174.774 112.266 175.443 112.56 176.005 113.149C176.566 113.738 176.852 114.453 176.86 115.293C176.86 116.116 176.584 116.809 176.031 117.372C175.478 117.935 174.8 118.217 173.996 118.217C173.158 118.217 172.471 117.927 171.935 117.346C171.4 116.766 171.128 116.086 171.119 115.306ZM173.996 117.697C175.05 117.697 175.577 116.991 175.577 115.579V115.163V114.839C175.577 114.648 175.573 114.483 175.564 114.345C175.556 114.206 175.525 114.042 175.473 113.851C175.422 113.66 175.352 113.505 175.266 113.383C175.18 113.262 175.046 113.141 174.864 113.019C174.683 112.898 174.471 112.812 174.229 112.76C174.186 112.751 174.117 112.747 174.022 112.747C173.763 112.747 173.516 112.799 173.283 112.903C172.912 113.093 172.67 113.357 172.557 113.695C172.445 114.033 172.389 114.431 172.389 114.891V115.15C172.389 115.982 172.471 116.567 172.635 116.904C172.912 117.433 173.365 117.697 173.996 117.697Z" fill="black"></path><path d="M181.059 113.982C181.059 113.635 180.943 113.336 180.709 113.085C180.476 112.834 180.139 112.708 179.699 112.708C179.387 112.708 179.12 112.765 178.895 112.877C178.636 113.042 178.506 113.267 178.506 113.553C178.498 113.596 178.498 113.653 178.506 113.722C178.515 113.791 178.584 113.895 178.714 114.034C178.843 114.172 179.029 114.281 179.271 114.358C179.426 114.402 179.616 114.441 179.841 114.475C180.066 114.51 180.256 114.549 180.411 114.592C180.567 114.636 180.705 114.692 180.826 114.761C180.973 114.831 181.115 114.917 181.254 115.021C181.392 115.125 181.53 115.303 181.668 115.554C181.807 115.805 181.88 116.074 181.889 116.359C181.889 116.896 181.725 117.338 181.396 117.685C181.068 118.031 180.537 118.209 179.802 118.217H179.699C179.249 118.217 178.835 118.062 178.454 117.75L178.351 117.841L178.234 117.958C178.182 118.01 178.13 118.057 178.079 118.101L177.936 118.23H177.832H177.78C177.755 118.23 177.716 118.204 177.664 118.153V117.126V116.372C177.664 116.191 177.672 116.082 177.69 116.048C177.707 116.013 177.75 115.991 177.819 115.983H177.936C178.04 115.983 178.109 116 178.143 116.035C178.178 116.069 178.199 116.121 178.208 116.191C178.217 116.26 178.247 116.377 178.299 116.541C178.351 116.706 178.433 116.888 178.545 117.087C178.847 117.529 179.267 117.75 179.802 117.75C180.64 117.75 181.059 117.412 181.059 116.736C181.059 116.485 180.982 116.281 180.826 116.126C180.653 115.918 180.295 115.762 179.75 115.658C179.206 115.554 178.847 115.454 178.675 115.359C178.364 115.212 178.117 115.012 177.936 114.761C177.755 114.51 177.664 114.242 177.664 113.956C177.664 113.618 177.737 113.332 177.884 113.098C178.031 112.864 178.217 112.691 178.441 112.578C178.666 112.466 178.882 112.388 179.089 112.345C179.297 112.301 179.487 112.28 179.66 112.28H179.802C180.148 112.28 180.45 112.345 180.709 112.474L180.904 112.578L181.02 112.487C181.107 112.409 181.202 112.336 181.306 112.267H181.409H181.461C181.487 112.267 181.526 112.293 181.578 112.345V114.06L181.5 114.138H181.137C181.085 114.086 181.059 114.034 181.059 113.982Z" fill="black"></path><path d="M183.561 114.839C183.561 114.242 183.604 113.674 183.69 113.137C183.777 112.6 183.876 112.137 183.988 111.747C184.101 111.357 184.26 110.976 184.468 110.604C184.675 110.231 184.839 109.941 184.96 109.733C185.081 109.525 185.263 109.3 185.505 109.057C185.746 108.815 185.889 108.668 185.932 108.616C185.975 108.564 186.083 108.473 186.256 108.343H186.425H186.477C186.597 108.343 186.658 108.382 186.658 108.46C186.658 108.486 186.585 108.577 186.438 108.732C186.291 108.888 186.114 109.118 185.906 109.421C185.699 109.724 185.487 110.097 185.271 110.539C185.055 110.98 184.874 111.578 184.727 112.332C184.58 113.085 184.507 113.921 184.507 114.839C184.507 115.757 184.58 116.589 184.727 117.334C184.874 118.079 185.051 118.681 185.258 119.14C185.466 119.599 185.677 119.972 185.893 120.257C186.109 120.543 186.291 120.773 186.438 120.946C186.585 121.119 186.658 121.21 186.658 121.219C186.658 121.297 186.593 121.336 186.464 121.336H186.425H186.256L185.893 121.024C185.081 120.288 184.489 119.37 184.118 118.27C183.746 117.169 183.561 116.026 183.561 114.839Z" fill="black"></path><path d="M187.837 115.488C187.837 114.605 188.006 113.673 188.343 112.695C188.68 111.716 189.137 110.871 189.716 110.161C190.295 109.451 190.896 109.044 191.518 108.94C191.526 108.94 191.561 108.94 191.621 108.94C191.682 108.94 191.734 108.935 191.777 108.927C192.244 108.961 192.606 109.173 192.866 109.563C193.203 110.083 193.371 110.78 193.371 111.655C193.371 112.651 193.177 113.665 192.788 114.696C192.399 115.726 191.902 116.571 191.297 117.229C190.693 117.888 190.114 118.217 189.561 118.217H189.47C189.159 118.217 188.891 118.13 188.667 117.957C188.442 117.784 188.273 117.554 188.161 117.268C188.049 116.982 187.967 116.692 187.915 116.398C187.863 116.103 187.837 115.8 187.837 115.488ZM192.347 110.733C192.347 109.849 192.118 109.407 191.66 109.407C191.349 109.407 191.047 109.602 190.753 109.992C190.459 110.382 190.217 110.824 190.027 111.317C189.837 111.811 189.69 112.244 189.587 112.617C189.483 112.989 189.427 113.206 189.418 113.266C189.842 113.275 190.261 113.279 190.675 113.279L191.932 113.266C191.941 113.258 191.976 113.115 192.036 112.838C192.097 112.56 192.166 112.214 192.244 111.798C192.321 111.382 192.356 111.027 192.347 110.733ZM188.848 116.372C188.848 117.29 189.077 117.749 189.535 117.749C189.665 117.749 189.803 117.706 189.95 117.619C190.097 117.532 190.274 117.368 190.481 117.125C190.688 116.883 190.896 116.506 191.103 115.995C191.31 115.484 191.518 114.852 191.725 114.098L191.79 113.877H189.263C189.263 113.903 189.224 114.068 189.146 114.371C189.068 114.674 188.999 115.012 188.939 115.384C188.878 115.757 188.848 116.086 188.848 116.372Z" fill="black"></path><path d="M194.24 108.356L194.291 108.343C194.335 108.343 194.378 108.343 194.421 108.343H194.577L194.939 108.655C195.752 109.391 196.343 110.309 196.715 111.409C197.086 112.509 197.272 113.653 197.272 114.839C197.272 115.428 197.229 115.996 197.143 116.541C197.056 117.087 196.957 117.551 196.845 117.932C196.732 118.313 196.572 118.694 196.365 119.075C196.158 119.456 195.994 119.746 195.873 119.946C195.752 120.145 195.574 120.366 195.341 120.608C195.108 120.851 194.97 120.994 194.926 121.037C194.883 121.08 194.784 121.163 194.628 121.284C194.602 121.31 194.585 121.327 194.577 121.336H194.421C194.352 121.336 194.304 121.336 194.278 121.336C194.253 121.336 194.231 121.323 194.214 121.297C194.196 121.271 194.183 121.232 194.175 121.18C194.183 121.171 194.231 121.115 194.317 121.011C195.657 119.616 196.326 117.559 196.326 114.839C196.326 112.119 195.657 110.062 194.317 108.668C194.231 108.564 194.183 108.507 194.175 108.499C194.175 108.429 194.196 108.382 194.24 108.356Z" fill="black"></path><path d="M202.829 113.579C202.829 113.466 202.89 113.38 203.011 113.319H211.266C211.396 113.388 211.461 113.475 211.461 113.579C211.461 113.674 211.4 113.756 211.279 113.826L207.158 113.839H203.037C202.898 113.795 202.829 113.709 202.829 113.579ZM202.829 116.1C202.829 115.97 202.898 115.883 203.037 115.84H211.279C211.4 115.926 211.461 116.013 211.461 116.1C211.461 116.212 211.396 116.299 211.266 116.359H203.011C202.89 116.299 202.829 116.212 202.829 116.1Z" fill="black"></path><path d="M222.228 108.341C222.228 108.549 222.427 108.67 222.824 108.705C222.98 108.705 223.057 108.753 223.057 108.848C223.057 108.857 223.049 108.913 223.031 109.017C223.006 109.138 222.98 109.216 222.954 109.251C222.928 109.285 222.872 109.303 222.785 109.303C222.768 109.303 222.716 109.303 222.63 109.303C222.543 109.303 222.396 109.298 222.189 109.29C221.982 109.281 221.705 109.277 221.36 109.277C220.746 109.277 220.353 109.285 220.18 109.303H220.077C220.016 109.242 219.986 109.194 219.986 109.16C220.003 108.926 220.059 108.774 220.154 108.705H220.336C220.941 108.679 221.381 108.463 221.658 108.055C221.71 108.003 222.491 106.682 224.003 104.092C225.515 101.502 226.284 100.19 226.31 100.155C226.371 100.052 226.474 99.9996 226.621 99.9996H226.725H226.945C226.997 100.078 227.023 100.121 227.023 100.129L227.386 104.326C227.628 107.124 227.757 108.536 227.775 108.562C227.818 108.657 228.099 108.705 228.617 108.705C228.833 108.705 228.941 108.748 228.941 108.835C228.941 108.852 228.928 108.913 228.902 109.017C228.876 109.147 228.855 109.225 228.837 109.251C228.82 109.277 228.76 109.294 228.656 109.303C228.63 109.303 228.57 109.303 228.475 109.303C228.38 109.303 228.211 109.298 227.969 109.29C227.727 109.281 227.412 109.277 227.023 109.277C226.211 109.277 225.68 109.285 225.429 109.303H225.273C225.222 109.251 225.196 109.212 225.196 109.186C225.196 109.16 225.204 109.082 225.222 108.952C225.256 108.839 225.282 108.77 225.299 108.744L225.351 108.705H225.61C226.077 108.679 226.353 108.605 226.44 108.484L226.284 106.535H223.2L222.759 107.289C222.405 107.886 222.228 108.237 222.228 108.341ZM226.22 105.924C226.22 105.829 226.168 105.154 226.064 103.898C225.96 102.642 225.9 102.009 225.883 102.001L225.533 102.559C225.394 102.793 225.122 103.257 224.716 103.95L223.55 105.924L224.885 105.937C225.775 105.937 226.22 105.933 226.22 105.924Z" fill="black"></path><path d="M221.593 118.723C221.299 118.723 221.144 118.706 221.127 118.671C221.118 118.654 221.114 118.619 221.114 118.567C221.114 118.359 221.161 118.217 221.256 118.139C221.273 118.13 221.347 118.126 221.477 118.126C221.831 118.143 222.418 118.152 223.239 118.152C223.533 118.152 223.805 118.152 224.056 118.152C224.306 118.152 224.5 118.147 224.639 118.139C224.777 118.13 224.863 118.13 224.898 118.139C225.036 118.139 225.105 118.182 225.105 118.269C225.105 118.286 225.097 118.346 225.079 118.45C225.036 118.598 224.993 118.684 224.95 118.71H224.924C224.907 118.71 224.885 118.71 224.859 118.71C224.833 118.71 224.803 118.71 224.768 118.71C224.734 118.71 224.695 118.715 224.652 118.723C224.608 118.732 224.57 118.732 224.535 118.723C224.198 118.732 223.982 118.745 223.887 118.762C223.792 118.78 223.714 118.827 223.654 118.905C223.628 118.94 223.49 119.473 223.239 120.503C223.179 120.729 223.114 120.98 223.045 121.257C222.976 121.534 222.924 121.738 222.889 121.868L222.837 122.063C222.837 122.08 223.464 122.089 224.716 122.089H226.596L226.609 122.05C226.609 122.024 226.743 121.491 227.01 120.451C227.252 119.455 227.373 118.923 227.373 118.853C227.373 118.784 227.127 118.741 226.635 118.723C226.436 118.723 226.306 118.715 226.246 118.697C226.185 118.68 226.155 118.641 226.155 118.58C226.155 118.563 226.164 118.511 226.181 118.424C226.216 118.277 226.241 118.195 226.259 118.178C226.276 118.16 226.345 118.147 226.466 118.139C226.509 118.139 226.691 118.143 227.01 118.152C227.33 118.16 227.736 118.165 228.229 118.165C228.764 118.165 229.175 118.16 229.46 118.152C229.745 118.143 229.9 118.139 229.926 118.139C230.073 118.139 230.147 118.182 230.147 118.269C230.147 118.502 230.095 118.65 229.991 118.71H229.965C229.948 118.71 229.926 118.71 229.9 118.71C229.875 118.71 229.844 118.71 229.81 118.71C229.775 118.71 229.736 118.715 229.693 118.723C229.65 118.732 229.611 118.732 229.576 118.723C229.24 118.732 229.024 118.745 228.928 118.762C228.833 118.78 228.756 118.827 228.695 118.905C228.669 118.949 228.358 120.174 227.762 122.582C227.166 124.99 226.864 126.212 226.855 126.246C226.855 126.307 226.872 126.337 226.907 126.337C226.976 126.363 227.209 126.385 227.607 126.402H228.008C228.06 126.472 228.086 126.511 228.086 126.519C228.086 126.528 228.073 126.606 228.047 126.753C228.013 126.866 227.969 126.948 227.918 127H227.723C227.404 126.983 226.825 126.974 225.987 126.974C225.693 126.974 225.421 126.974 225.17 126.974C224.92 126.974 224.721 126.974 224.574 126.974C224.427 126.974 224.336 126.978 224.302 126.987C224.155 126.987 224.081 126.948 224.081 126.87C224.081 126.827 224.094 126.766 224.12 126.688C224.164 126.524 224.207 126.433 224.25 126.415C224.284 126.407 224.349 126.402 224.444 126.402H224.522C224.755 126.402 225.015 126.389 225.3 126.363C225.352 126.355 225.386 126.35 225.403 126.35C225.421 126.35 225.447 126.329 225.481 126.285C225.516 126.242 225.542 126.203 225.559 126.168C225.576 126.134 225.602 126.056 225.637 125.935C225.671 125.813 225.701 125.692 225.727 125.571C225.753 125.449 225.801 125.263 225.87 125.012C225.93 124.769 225.978 124.575 226.012 124.427C226.298 123.284 226.44 122.708 226.44 122.699C226.44 122.691 225.814 122.686 224.561 122.686H222.682L222.254 124.44C221.96 125.601 221.813 126.203 221.813 126.246C221.813 126.307 221.848 126.346 221.917 126.363C221.986 126.381 222.202 126.394 222.565 126.402H222.967C223.019 126.472 223.045 126.511 223.045 126.519C223.045 126.528 223.032 126.606 223.006 126.753C222.971 126.866 222.928 126.948 222.876 127H222.682C222.362 126.983 221.783 126.974 220.945 126.974C220.651 126.974 220.379 126.974 220.129 126.974C219.878 126.974 219.679 126.974 219.533 126.974C219.386 126.974 219.295 126.978 219.26 126.987C219.113 126.987 219.04 126.948 219.04 126.87C219.04 126.853 219.053 126.792 219.079 126.688C219.122 126.524 219.165 126.433 219.209 126.415C219.243 126.407 219.308 126.402 219.403 126.402H219.481C219.714 126.402 219.973 126.389 220.258 126.363C220.379 126.337 220.461 126.285 220.505 126.207C220.53 126.173 220.841 124.969 221.438 122.595C222.034 120.222 222.332 118.97 222.332 118.84C222.332 118.78 222.086 118.741 221.593 118.723Z" fill="black"></path><path d="M231.442 115.229H217.342V114.449H231.442V115.229Z" fill="black"></path></g><g clip-path="url(#clip2)"><path d="M312.351 112.518C312.811 112.484 313.166 112.24 313.418 111.787C313.669 111.333 313.808 110.802 313.834 110.192V109.996H314.354V112.401H316.11V113.002H314.354V114.884C314.363 115.973 314.367 116.587 314.367 116.727C314.367 116.866 314.398 117.005 314.458 117.145C314.58 117.484 314.792 117.654 315.096 117.654C315.477 117.654 315.711 117.345 315.798 116.727C315.806 116.657 315.811 116.456 315.811 116.125V115.668H316.331V116.125V116.282C316.331 116.953 316.149 117.463 315.785 117.811C315.551 118.046 315.247 118.164 314.874 118.164C314.58 118.164 314.324 118.112 314.107 118.007C313.89 117.903 313.726 117.768 313.613 117.602C313.5 117.437 313.418 117.284 313.366 117.145C313.314 117.005 313.283 116.866 313.275 116.727C313.266 116.666 313.262 116.021 313.262 114.792V113.002H312.234V112.518H312.351Z" fill="black"></path><path d="M318.841 114.048C318.841 114.048 318.746 114.048 318.555 114.048C318.364 114.048 318.204 113.983 318.074 113.852C317.944 113.721 317.879 113.551 317.879 113.342C317.879 113.037 318.026 112.767 318.321 112.532C318.616 112.297 319.14 112.179 319.894 112.179C320.527 112.179 321.039 112.319 321.429 112.597C321.819 112.876 322.079 113.207 322.209 113.591C322.253 113.713 322.274 113.848 322.274 113.996C322.274 114.144 322.279 114.645 322.287 115.499V116.413C322.287 116.832 322.309 117.119 322.352 117.276C322.396 117.433 322.487 117.511 322.626 117.511C322.756 117.511 322.842 117.442 322.886 117.302C322.929 117.163 322.951 116.932 322.951 116.609V116.139H323.471V116.649C323.462 116.997 323.449 117.202 323.432 117.263C323.354 117.524 323.202 117.729 322.977 117.877C322.751 118.025 322.513 118.104 322.261 118.112C322.01 118.121 321.806 118.043 321.65 117.877C321.494 117.712 321.39 117.529 321.338 117.328V117.276L321.312 117.315C321.295 117.341 321.273 117.367 321.247 117.394C321.221 117.42 321.186 117.459 321.143 117.511C321.1 117.564 321.048 117.611 320.987 117.655C320.926 117.699 320.861 117.751 320.792 117.812C320.722 117.873 320.644 117.921 320.558 117.956C320.471 117.99 320.376 118.025 320.272 118.06C320.168 118.095 320.055 118.121 319.933 118.139C319.812 118.156 319.678 118.169 319.53 118.178C319.01 118.178 318.542 118.043 318.126 117.773C317.71 117.503 317.501 117.124 317.501 116.636C317.501 116.453 317.532 116.278 317.593 116.113C317.653 115.947 317.77 115.769 317.944 115.577C318.117 115.385 318.325 115.224 318.568 115.094C318.811 114.963 319.149 114.841 319.582 114.728C320.016 114.614 320.493 114.549 321.013 114.532H321.195V114.244C321.195 113.948 321.169 113.73 321.117 113.591C320.926 112.972 320.506 112.663 319.855 112.663C319.699 112.663 319.552 112.667 319.413 112.676C319.275 112.685 319.166 112.702 319.088 112.728C319.01 112.754 318.975 112.767 318.984 112.767C319.175 112.898 319.27 113.09 319.27 113.342C319.27 113.56 319.201 113.73 319.062 113.852L318.841 114.048ZM318.698 116.649C318.698 116.919 318.802 117.158 319.01 117.367C319.218 117.577 319.474 117.685 319.777 117.694C320.107 117.694 320.397 117.594 320.649 117.394C320.9 117.193 321.069 116.932 321.156 116.609C321.173 116.548 321.186 116.261 321.195 115.747C321.195 115.242 321.191 114.989 321.182 114.989C321.113 114.989 321.022 114.993 320.909 115.002C320.796 115.011 320.601 115.05 320.324 115.12C320.046 115.189 319.795 115.276 319.569 115.381C319.344 115.486 319.144 115.647 318.971 115.865C318.798 116.082 318.707 116.344 318.698 116.649Z" fill="black"></path><path d="M324.095 117.434H324.277C324.615 117.434 324.819 117.373 324.888 117.251V117.146C324.888 117.068 324.888 116.968 324.888 116.846C324.888 116.724 324.888 116.589 324.888 116.441C324.888 116.293 324.893 116.123 324.901 115.931C324.91 115.739 324.91 115.556 324.901 115.382C324.901 115.112 324.901 114.825 324.901 114.52C324.901 114.215 324.897 113.958 324.888 113.749V113.448C324.862 113.282 324.802 113.174 324.706 113.121C324.611 113.069 324.416 113.03 324.121 113.004H323.887V112.703C323.887 112.503 323.896 112.403 323.913 112.403L324.043 112.389C324.13 112.381 324.251 112.372 324.407 112.363C324.563 112.355 324.724 112.346 324.888 112.337C325.036 112.328 325.192 112.32 325.357 112.311C325.521 112.302 325.647 112.289 325.734 112.272C325.82 112.254 325.868 112.25 325.877 112.259H325.916V112.782C325.916 113.113 325.92 113.278 325.929 113.278C325.937 113.278 325.959 113.256 325.994 113.213C326.028 113.169 326.081 113.104 326.15 113.017C326.219 112.93 326.302 112.851 326.397 112.782C326.492 112.712 326.618 112.629 326.774 112.533C326.93 112.437 327.095 112.368 327.268 112.324C327.442 112.281 327.663 112.259 327.932 112.259C328.92 112.294 329.471 112.786 329.583 113.736C329.592 113.797 329.596 114.402 329.596 115.552V116.676C329.596 117.007 329.605 117.203 329.622 117.264C329.64 117.325 329.687 117.369 329.765 117.395C329.947 117.421 330.16 117.434 330.403 117.434H330.611V118.035H330.507L330.195 118.022C329.995 118.013 329.778 118.009 329.544 118.009C329.31 118.009 329.145 118.005 329.05 117.996C328.157 117.996 327.671 118.009 327.593 118.035H327.489V117.434H327.698C328.226 117.434 328.491 117.364 328.491 117.225C328.499 117.207 328.504 116.606 328.504 115.421C328.495 114.245 328.486 113.622 328.478 113.553C328.426 113.309 328.339 113.126 328.218 113.004C328.096 112.882 327.992 112.808 327.906 112.782C327.819 112.755 327.706 112.747 327.567 112.755C327.177 112.755 326.835 112.904 326.54 113.2C326.306 113.435 326.159 113.675 326.098 113.919C326.037 114.162 326.002 114.524 325.994 115.003V115.84V116.624C325.994 116.885 325.998 117.059 326.007 117.146C326.015 117.234 326.028 117.29 326.046 117.316C326.063 117.343 326.102 117.369 326.163 117.395C326.345 117.421 326.557 117.434 326.8 117.434H327.008V118.035H326.904L326.605 118.022C326.397 118.013 326.176 118.009 325.942 118.009C325.708 118.009 325.543 118.005 325.448 117.996C324.555 117.996 324.069 118.009 323.991 118.035H323.887V117.434H324.095Z" fill="black"></path><path d="M332.015 114.768C332.015 114.167 332.059 113.597 332.145 113.056C332.232 112.516 332.332 112.05 332.445 111.658C332.557 111.266 332.718 110.883 332.926 110.508C333.134 110.133 333.299 109.841 333.42 109.632C333.541 109.423 333.723 109.197 333.966 108.953C334.209 108.709 334.352 108.561 334.395 108.508C334.439 108.456 334.547 108.365 334.72 108.234H334.89H334.942C335.063 108.234 335.124 108.273 335.124 108.352C335.124 108.378 335.05 108.469 334.903 108.626C334.755 108.783 334.577 109.014 334.369 109.319C334.161 109.624 333.949 109.998 333.732 110.443C333.515 110.887 333.333 111.488 333.186 112.246C333.038 113.004 332.965 113.845 332.965 114.768C332.965 115.692 333.038 116.528 333.186 117.278C333.333 118.027 333.511 118.632 333.719 119.094C333.927 119.556 334.14 119.931 334.356 120.218C334.573 120.506 334.755 120.736 334.903 120.911C335.05 121.085 335.124 121.176 335.124 121.185C335.124 121.264 335.059 121.303 334.929 121.303H334.89H334.72L334.356 120.989C333.541 120.249 332.947 119.325 332.575 118.219C332.202 117.112 332.015 115.962 332.015 114.768Z" fill="black"></path><path d="M336.307 115.422C336.307 114.533 336.476 113.596 336.815 112.612C337.153 111.627 337.612 110.778 338.193 110.063C338.774 109.349 339.377 108.939 340.001 108.835C340.01 108.835 340.044 108.835 340.105 108.835C340.166 108.835 340.218 108.831 340.261 108.822C340.729 108.857 341.093 109.07 341.353 109.462C341.692 109.985 341.861 110.686 341.861 111.566C341.861 112.568 341.666 113.588 341.275 114.624C340.885 115.661 340.387 116.511 339.78 117.173C339.173 117.835 338.592 118.166 338.037 118.166H337.946C337.634 118.166 337.365 118.079 337.14 117.905C336.914 117.73 336.745 117.5 336.633 117.212C336.52 116.924 336.437 116.633 336.385 116.336C336.333 116.04 336.307 115.735 336.307 115.422ZM340.833 110.638C340.833 109.75 340.603 109.305 340.144 109.305C339.832 109.305 339.528 109.501 339.234 109.894C338.939 110.286 338.696 110.73 338.505 111.227C338.315 111.723 338.167 112.159 338.063 112.533C337.959 112.908 337.903 113.126 337.894 113.187C338.319 113.196 338.739 113.2 339.156 113.2L340.417 113.187C340.426 113.178 340.46 113.034 340.521 112.756C340.582 112.477 340.651 112.128 340.729 111.71C340.807 111.292 340.842 110.935 340.833 110.638ZM337.322 116.31C337.322 117.234 337.552 117.696 338.011 117.696C338.141 117.696 338.28 117.652 338.427 117.565C338.575 117.478 338.752 117.312 338.96 117.068C339.169 116.824 339.377 116.445 339.585 115.931C339.793 115.417 340.001 114.781 340.209 114.023L340.274 113.801H337.738C337.738 113.827 337.699 113.993 337.621 114.298C337.543 114.603 337.474 114.942 337.413 115.317C337.352 115.692 337.322 116.023 337.322 116.31Z" fill="black"></path><path d="M342.732 108.247L342.784 108.234C342.827 108.234 342.87 108.234 342.914 108.234H343.07L343.434 108.548C344.249 109.288 344.843 110.212 345.216 111.318C345.589 112.425 345.775 113.575 345.775 114.768C345.775 115.361 345.732 115.931 345.645 116.48C345.558 117.029 345.459 117.495 345.346 117.879C345.233 118.262 345.073 118.645 344.865 119.029C344.657 119.412 344.492 119.704 344.37 119.904C344.249 120.105 344.071 120.327 343.837 120.571C343.603 120.815 343.464 120.959 343.421 121.002C343.378 121.046 343.278 121.128 343.122 121.25C343.096 121.277 343.079 121.294 343.07 121.303H342.914C342.844 121.303 342.797 121.303 342.771 121.303C342.745 121.303 342.723 121.29 342.706 121.264C342.688 121.237 342.675 121.198 342.667 121.146C342.675 121.137 342.723 121.081 342.81 120.976C344.154 119.573 344.826 117.504 344.826 114.768C344.826 112.033 344.154 109.963 342.81 108.561C342.723 108.456 342.675 108.4 342.667 108.391C342.667 108.321 342.688 108.273 342.732 108.247Z" fill="black"></path><path d="M351.352 113.5C351.352 113.387 351.412 113.3 351.534 113.239H359.818C359.948 113.308 360.013 113.396 360.013 113.5C360.013 113.596 359.952 113.679 359.831 113.748L355.695 113.762H351.56C351.421 113.718 351.352 113.631 351.352 113.5ZM351.352 116.036C351.352 115.905 351.421 115.818 351.56 115.774H359.831C359.952 115.861 360.013 115.948 360.013 116.036C360.013 116.149 359.948 116.236 359.818 116.297H351.534C351.412 116.236 351.352 116.149 351.352 116.036Z" fill="black"></path><path d="M376.84 103.516C376.84 104.518 376.562 105.485 376.007 106.417C375.452 107.349 374.737 108.094 373.861 108.652C372.986 109.209 372.088 109.488 371.169 109.488C370.328 109.488 369.609 109.24 369.01 108.743C368.412 108.247 368.035 107.524 367.879 106.574C367.87 106.504 367.866 106.317 367.866 106.012C367.866 105.123 368.074 104.278 368.49 103.477C368.906 102.675 369.466 101.965 370.168 101.346C371.243 100.449 372.322 100 373.406 100C373.736 100 373.944 100.005 374.03 100.013C374.871 100.135 375.548 100.51 376.059 101.137C376.571 101.765 376.831 102.557 376.84 103.516ZM375.5 102.98C375.5 102.205 375.301 101.599 374.902 101.163C374.503 100.728 374.004 100.51 373.406 100.51C372.713 100.51 372.045 100.771 371.403 101.294C370.71 101.843 370.181 102.614 369.817 103.607C369.453 104.601 369.266 105.524 369.258 106.378C369.258 107.162 369.444 107.785 369.817 108.247C370.19 108.709 370.684 108.944 371.299 108.952C372.08 108.952 372.821 108.608 373.523 107.92C374.226 107.232 374.759 106.295 375.123 105.11C375.374 104.283 375.5 103.573 375.5 102.98Z" fill="black"></path><path d="M370.005 126.033C370.005 126.242 370.205 126.364 370.604 126.399C370.76 126.399 370.838 126.447 370.838 126.543C370.838 126.551 370.829 126.608 370.812 126.712C370.786 126.834 370.76 126.913 370.734 126.948C370.708 126.983 370.651 127 370.565 127C370.547 127 370.495 127 370.408 127C370.322 127 370.174 126.996 369.966 126.987C369.758 126.978 369.481 126.974 369.134 126.974C368.518 126.974 368.124 126.983 367.95 127H367.846C367.786 126.939 367.755 126.891 367.755 126.856C367.773 126.621 367.829 126.469 367.924 126.399H368.107C368.713 126.373 369.156 126.155 369.433 125.745C369.485 125.693 370.27 124.364 371.787 121.759C373.304 119.154 374.076 117.834 374.102 117.8C374.163 117.695 374.267 117.643 374.414 117.643H374.518H374.739C374.791 117.721 374.817 117.765 374.817 117.773L375.181 121.995C375.424 124.809 375.554 126.229 375.572 126.255C375.615 126.351 375.897 126.399 376.417 126.399C376.634 126.399 376.742 126.442 376.742 126.53C376.742 126.547 376.729 126.608 376.703 126.712C376.677 126.843 376.655 126.922 376.638 126.948C376.621 126.974 376.56 126.991 376.456 127C376.43 127 376.369 127 376.274 127C376.178 127 376.009 126.996 375.767 126.987C375.524 126.978 375.207 126.974 374.817 126.974C374.002 126.974 373.469 126.983 373.218 127H373.062C373.009 126.948 372.983 126.909 372.983 126.882C372.983 126.856 372.992 126.778 373.009 126.647C373.044 126.534 373.07 126.464 373.088 126.438L373.14 126.399H373.4C373.868 126.373 374.145 126.299 374.232 126.177L374.076 124.216H370.981L370.538 124.974C370.183 125.576 370.005 125.928 370.005 126.033ZM374.011 123.602C374.011 123.506 373.959 122.827 373.855 121.563C373.751 120.3 373.69 119.664 373.673 119.655L373.322 120.217C373.183 120.453 372.91 120.919 372.502 121.616L371.332 123.602L372.671 123.615C373.564 123.615 374.011 123.611 374.011 123.602Z" fill="black"></path><path d="M378.439 115.16H365.915V114.376H378.439V115.16Z" fill="black"></path></g><defs><clipPath id="clip0"><rect width="66" height="27" fill="white" transform="translate(20 100)"></rect></clipPath><clipPath id="clip1"><rect width="68" height="27" fill="white" transform="translate(165 100)"></rect></clipPath><clipPath id="clip2"><rect width="68" height="27" fill="white" transform="translate(312 100)"></rect></clipPath></defs></svg> 